<svg width="32" height="32" viewBox="0 0 32 32" xmlns="http://www.w3.org/2000/svg">
  <!-- Gradient definitions -->
  <defs>
    <linearGradient id="blueGradient" x1="0%" y1="0%" x2="100%" y2="100%">
      <stop offset="0%" style="stop-color:#14b8a6;stop-opacity:1" />
      <stop offset="100%" style="stop-color:#0ea5e9;stop-opacity:1" />
    </linearGradient>
    <linearGradient id="houseGradient" x1="0%" y1="0%" x2="100%" y2="100%">
      <stop offset="0%" style="stop-color:#06b6d4;stop-opacity:1" />
      <stop offset="100%" style="stop-color:#0891b2;stop-opacity:1" />
    </linearGradient>
  </defs>
  
  <!-- House icon -->
  <g transform="translate(4, 4)">
    <!-- House base -->
    <rect x="6" y="12" width="12" height="10" fill="url(#houseGradient)" rx="1"/>
    <!-- Roof -->
    <polygon points="6,12 12,6 18,12" fill="url(#blueGradient)"/>
    <!-- Window -->
    <rect x="9" y="14" width="6" height="6" fill="#0891b2" rx="0.5"/>
    <line x1="12" y1="14" x2="12" y2="20" stroke="white" stroke-width="0.5"/>
    <line x1="9" y1="17" x2="15" y2="17" stroke="white" stroke-width="0.5"/>
    <!-- Curved arc around house -->
    <path d="M 3 18 Q 12 24 21 18" stroke="url(#blueGradient)" stroke-width="2" fill="none"/>
    <!-- Sparkle stars -->
    <g fill="#06b6d4">
      <polygon points="16,4 16.5,5 17.5,5 16.8,5.7 17,6.5 16,6 15,6.5 15.2,5.7 14.5,5 15.5,5"/>
      <polygon points="20,6 20.3,6.5 20.8,6.5 20.5,6.8 20.6,7.3 20,7 19.4,7.3 19.5,6.8 19.2,6.5 19.7,6.5"/>
    </g>
  </g>
</svg>
