<svg width="48" height="48" viewBox="0 0 48 48" xmlns="http://www.w3.org/2000/svg">
  <!-- Gradient definitions -->
  <defs>
    <linearGradient id="blueGradient" x1="0%" y1="0%" x2="100%" y2="100%">
      <stop offset="0%" style="stop-color:#14b8a6;stop-opacity:1" />
      <stop offset="100%" style="stop-color:#0ea5e9;stop-opacity:1" />
    </linearGradient>
    <linearGradient id="houseGradient" x1="0%" y1="0%" x2="100%" y2="100%">
      <stop offset="0%" style="stop-color:#06b6d4;stop-opacity:1" />
      <stop offset="100%" style="stop-color:#0891b2;stop-opacity:1" />
    </linearGradient>
    <linearGradient id="roofGradient" x1="0%" y1="0%" x2="100%" y2="100%">
      <stop offset="0%" style="stop-color:#14b8a6;stop-opacity:1" />
      <stop offset="100%" style="stop-color:#06b6d4;stop-opacity:1" />
    </linearGradient>
    <linearGradient id="swooshGradient" x1="0%" y1="0%" x2="100%" y2="100%">
      <stop offset="0%" style="stop-color:#0891b2;stop-opacity:1" />
      <stop offset="100%" style="stop-color:#0ea5e9;stop-opacity:1" />
    </linearGradient>
  </defs>
  
  <!-- House icon with better contrast -->
  <g transform="translate(6, 6)">
    <!-- House base -->
    <rect x="8" y="16" width="20" height="16" fill="url(#houseGradient)" rx="2"/>
    <!-- Roof -->
    <polygon points="8,16 18,6 28,16" fill="url(#roofGradient)"/>
    <!-- Chimney -->
    <rect x="20" y="4" width="6" height="8" fill="url(#houseGradient)" rx="1"/>
    <!-- Windows (2x2 grid) -->
    <rect x="11" y="19" width="4" height="4" fill="#0ea5e9" rx="0.5"/>
    <rect x="17" y="19" width="4" height="4" fill="#0ea5e9" rx="0.5"/>
    <rect x="11" y="25" width="4" height="4" fill="#0ea5e9" rx="0.5"/>
    <rect x="17" y="25" width="4" height="4" fill="#0ea5e9" rx="0.5"/>
    <!-- Curved swoosh -->
    <path d="M 4 24 Q 18 32 32 24" stroke="url(#swooshGradient)" stroke-width="4" fill="none" stroke-linecap="round"/>
    <!-- Sparkle stars -->
    <g fill="#14b8a6">
      <polygon points="22,2 23,4 25,4 23.5,5.5 24,7.5 22,6 20,7.5 20.5,5.5 19,4 21,4"/>
      <polygon points="30,6 30.5,7 31.5,7 31,7.5 31.2,8.5 30,8 28.8,8.5 29,7.5 28.5,7 29.5,7"/>
    </g>
  </g>
</svg>