<svg width="240" height="80" viewBox="0 0 240 80" xmlns="http://www.w3.org/2000/svg">
  <!-- Gradient definitions -->
  <defs>
    <linearGradient id="blueGradient" x1="0%" y1="0%" x2="100%" y2="100%">
      <stop offset="0%" style="stop-color:#14b8a6;stop-opacity:1" />
      <stop offset="100%" style="stop-color:#0ea5e9;stop-opacity:1" />
    </linearGradient>
    <linearGradient id="houseGradient" x1="0%" y1="0%" x2="100%" y2="100%">
      <stop offset="0%" style="stop-color:#06b6d4;stop-opacity:1" />
      <stop offset="100%" style="stop-color:#0891b2;stop-opacity:1" />
    </linearGradient>
    <linearGradient id="roofGradient" x1="0%" y1="0%" x2="100%" y2="100%">
      <stop offset="0%" style="stop-color:#14b8a6;stop-opacity:1" />
      <stop offset="100%" style="stop-color:#06b6d4;stop-opacity:1" />
    </linearGradient>
    <linearGradient id="swooshGradient" x1="0%" y1="0%" x2="100%" y2="100%">
      <stop offset="0%" style="stop-color:#0891b2;stop-opacity:1" />
      <stop offset="100%" style="stop-color:#0ea5e9;stop-opacity:1" />
    </linearGradient>
  </defs>
  
  <!-- House icon with swooshes and sparkles -->
  <g transform="translate(15, 20)">
    <!-- House base -->
    <rect x="12" y="24" width="24" height="20" fill="url(#houseGradient)" rx="2"/>
    <!-- Roof -->
    <polygon points="12,24 24,12 36,24" fill="url(#roofGradient)"/>
    <!-- Chimney -->
    <rect x="28" y="8" width="8" height="12" fill="url(#houseGradient)" rx="1"/>
    <!-- Window (single square) -->
    <rect x="18" y="28" width="12" height="12" fill="#0ea5e9" rx="1"/>
    <line x1="24" y1="28" x2="24" y2="40" stroke="white" stroke-width="1"/>
    <line x1="18" y1="34" x2="30" y2="34" stroke="white" stroke-width="1"/>
    <!-- First swoosh -->
    <path d="M 6 32 Q 24 44 42 32" stroke="url(#swooshGradient)" stroke-width="4" fill="none" stroke-linecap="round"/>
    <!-- Second swoosh -->
    <path d="M 8 36 Q 24 48 40 36" stroke="url(#swooshGradient)" stroke-width="3" fill="none" stroke-linecap="round"/>
    <!-- Sparkle stars (white) -->
    <g fill="white">
      <polygon points="32,6 33,8 35,8 33.5,9.5 34,11.5 32,10 30,11.5 30.5,9.5 29,8 31,8"/>
      <polygon points="38,10 38.5,11 39.5,11 39,11.5 39.2,12.5 38,12 36.8,12.5 37,11.5 36.5,11 37.5,11"/>
      <polygon points="42,6 42.3,6.5 42.8,6.5 42.5,6.8 42.6,7.3 42,7 41.4,7.3 41.5,6.8 41.2,6.5 41.7,6.5"/>
    </g>
  </g>
  
  <!-- Text -->
  <text x="70" y="35" font-family="Arial, sans-serif" font-size="22" font-weight="bold" fill="#1e293b">CleanBiz</text>
  <text x="70" y="65" font-family="Arial, sans-serif" font-size="20" font-weight="normal" fill="url(#blueGradient)">360®</text>
</svg>